<svg xmlns="http://www.w3.org/2000/svg" viewBox="0 0 1321.7 488.8"><defs><style>.cls-1{fill:#0a4bc3;}.cls-2{fill:#00bc72;}</style></defs><g id="Layer_2" data-name="Layer 2"><g id="Layer_1-2" data-name="Layer 1"><path class="cls-1" d="M652.1,382.1,615,431.6h-4.3l-36.3-49.7v82.9H552.9v-114h24.7l35.7,49,35.7-49h24.6v114H652.1Z"/><path class="cls-1" d="M702.3,464.8V350.7h21.4V464.8Z"/><path class="cls-1" d="M828.7,464.9V418.7h-56v46.2H751.2V350.8h21.5v48.1h56V350.8h21.4V464.9Z"/><path class="cls-1" d="M977.4,464.9H951.9l-33.3-38.2H897.9v38.2H876.4V350.6l54.3.2c26.9.2,41,18.1,41,37.8,0,15.6-7.1,31.5-28.8,35.9l34.5,38.9Zm-79.5-94.1v36.5h32.8c13.7,0,19.5-9.1,19.5-18.2s-6-18.3-19.5-18.3Z"/><path class="cls-1" d="M1085.6,464.8h-85.4V350.7h85.4v20.9h-64v26.2h61.7v20.1h-61.7v25.7h64Z"/><path class="cls-1" d="M1196.6,464.8h-85.4v-114h85.4v20.8h-64.1v26.3h61.8v20h-61.8v25.7h64.1Z"/><path class="cls-1" d="M1300.2,350.6h21.5V464.9h-13.3l-60-77v76.9h-21.5V350.8h17.4l55.9,70.7Z"/><polygon class="cls-1" points="485.9 305.8 485.9 465 406.9 465 406.9 380.4 485.9 305.8"/><polygon class="cls-2" points="610.6 259.1 610.6 89.4 552.9 143.9 552.9 312.5 768.2 312.5 768.2 259.1 610.6 259.1"/><polygon class="cls-1" points="552.9 6.1 552.9 106.4 610.6 52 610.6 6.1 552.9 6.1"/><path class="cls-2" d="M866.6,259.1V6.1H808.8V312.5h215.3V259.1Z"/><path class="cls-2" d="M1282.3,234.2c-20.1,20.1-50.3,31-77,31-75.7,0-105-52.9-105.5-103.7s31.5-106.4,105.5-106.4c26.7,0,53.8,9.2,74,28.9l38.5-37.2C1286.3,15.8,1246.9,0,1205.3,0c-110.7,0-162.8,81.4-162.4,161.5s48.6,158,162.4,158c44.2,0,84.9-14.4,116.4-45.5Z"/><polygon class="cls-2" points="245.1 384.4 244.2 385.3 219.7 362.3 163.7 309.6 107.5 257.3 107.5 363.1 244.2 488.8 485.9 258.8 485.9 156.7 245.1 384.4"/><polygon class="cls-1" points="244.2 233.2 107.5 104.6 79.1 78 0 3.6 0 465 79.1 465 79.1 186.6 79.3 186.7 244 339.7 244.2 339.9 244.3 339.9 485.9 107.2 485.9 18.6 485.9 6 485.9 3.6 244.2 233.2"/></g></g></svg>